{
	"asset":{
		"generator":"Khronos glTF Blender I/O v4.0.44",
		"version":"2.0"
	},
	"scene":0,
	"scenes":[
		{
			"name":"Scene",
			"nodes":[
				0
			]
		}
	],
	"nodes":[
		{
			"mesh":0,
			"name":"teapot",
			"rotation":[
				0,
				0.8900742530822754,
				0,
				0.45581555366516113
			]
		}
	],
	"meshes":[
		{
			"name":"Teapot.001",
			"primitives":[
				{
					"attributes":{
						"POSITION":0,
						"NORMAL":1
					},
					"indices":2
				}
			]
		}
	],
	"accessors":[
		{
			"bufferView":0,
			"componentType":5126,
			"count":3084,
			"max":[
				1.3458987474441528,
				1.2303060293197632,
				1.65553617477417
			],
			"min":[
				-1.3948959112167358,
				-0.8788727521896362,
				-1.8550517559051514
			],
			"type":"VEC3"
		},
		{
			"bufferView":1,
			"componentType":5126,
			"count":3084,
			"type":"VEC3"
		},
		{
			"bufferView":2,
			"componentType":5123,
			"count":4680,
			"type":"SCALAR"
		}
	],
	"bufferViews":[
		{
			"buffer":0,
			"byteLength":37008,
			"byteOffset":0,
			"target":34962
		},
		{
			"buffer":0,
			"byteLength":37008,
			"byteOffset":37008,
			"target":34962
		},
		{
			"buffer":0,
			"byteLength":9360,
			"byteOffset":74016,
			"target":34963
		}
	],
	"buffers":[
		{
			"byteLength":83376,
			"uri":"teapot.bin"
		}
	]
}
